<?xml version="1.0" encoding="UTF-8" standalone="no"?><!DOCTYPE svg PUBLIC "-//W3C//DTD SVG 1.1//EN" "http://www.w3.org/Graphics/SVG/1.1/DTD/svg11.dtd"><svg width="100%" height="100%" viewBox="0 0 41 33" version="1.1" xmlns="http://www.w3.org/2000/svg" xmlns:xlink="http://www.w3.org/1999/xlink" xml:space="preserve" style="fill-rule:evenodd;clip-rule:evenodd;stroke-linejoin:round;stroke-miterlimit:1.41421;"><path id="quot" d="M36.264,2.632l-1.179,-2.297c-4.387,2.07 -7.667,4.791 -9.84,8.164c-2.172,3.373 -3.259,7.191 -3.259,11.453c0,3.352 0.724,6.146 2.173,8.38c1.738,2.691 4.242,4.036 7.512,4.036c2.275,0 4.199,-0.776 5.773,-2.328c1.572,-1.552 2.359,-3.486 2.359,-5.805c0,-2.483 -0.776,-4.459 -2.328,-5.928c-1.552,-1.469 -3.487,-2.204 -5.804,-2.204c-1.698,0 -3.27,0.558 -4.718,1.676c-0.249,-0.745 -0.373,-1.634 -0.373,-2.669c0,-2.442 0.952,-4.852 2.856,-7.233c1.903,-2.379 4.179,-4.127 6.828,-5.245l0,0ZM14.661,2.632l-1.179,-2.297c-4.388,2.07 -7.667,4.791 -9.84,8.164c-0.477,0.741 -0.902,1.503 -1.275,2.288c-1.322,2.784 -1.984,5.839 -1.984,9.165c0,3.352 0.724,6.146 2.173,8.38c1.738,2.691 4.242,4.036 7.511,4.036c1.448,0 2.794,-0.352 4.035,-1.056c1.242,-0.703 2.235,-1.676 2.98,-2.917c0.745,-1.242 1.118,-2.628 1.118,-4.16c0,-2.483 -0.787,-4.459 -2.359,-5.928c-1.574,-1.469 -3.498,-2.204 -5.774,-2.204c-1.738,0 -3.311,0.558 -4.718,1.676c-0.248,-0.745 -0.372,-1.634 -0.372,-2.669c0,-2.442 0.951,-4.852 2.856,-7.233c1.903,-2.379 4.179,-4.127 6.828,-5.245l0,0Z" style="fill:#fff;fill-opacity:0.15;fill-rule:nonzero;"/></svg>